<?xml version="1.0" encoding="UTF-8"?>
<!DOCTYPE svg PUBLIC "-//W3C//DTD SVG 1.1//EN" "http://www.w3.org/Graphics/SVG/1.1/DTD/svg11.dtd">
<!-- Creator: CorelDRAW X5 -->
<svg xmlns="http://www.w3.org/2000/svg" xml:space="preserve" width="54.4705mm" height="23.1786mm" style="shape-rendering:geometricPrecision; text-rendering:geometricPrecision; image-rendering:optimizeQuality; fill-rule:evenodd; clip-rule:evenodd"
viewBox="0 0 1569 668"
 xmlns:xlink="http://www.w3.org/1999/xlink">
 <defs>
  <style type="text/css">
   <![CDATA[
    .fil0 {fill:#E31E24}
    .fil1 {fill:#22201E}
    .fil2 {fill:#E31E24;fill-rule:nonzero}
   ]]>
  </style>
 </defs>
 <g id="Слой_x0020_1">
  <metadata id="CorelCorpID_0Corel-Layer"/>
  <g id="_270561472">
   <path class="fil0" d="M907 169c0,0 1,-1 3,-4 73,-76 122,-111 227,-126 61,-9 111,1 176,27 1,0 199,67 199,338 0,-1 -2,49 -20,100 -6,16 -15,37 -27,54 -2,2 -4,6 -4,9 0,0 1,-1 3,-3 11,-12 47,-57 65,-139 22,-98 -7,-221 -56,-286 -39,-52 -132,-143 -278,-138 -46,2 -93,12 -137,31 -34,15 -61,33 -88,58 -24,23 -48,51 -59,68 -4,6 -6,12 -6,12z"/>
   <path class="fil1" d="M658 399l0 11 21 0 0 6 -21 0 0 17 21 0 0 6 -28 0 0 -46 28 0 0 6 -21 0zm32 13l22 -19 10 0 -26 22 27 24 -10 0 -22 -21 0 21 -7 0 0 -46 7 0 0 19zm68 -13l-19 0c0,4 0,7 0,11 0,3 0,5 0,8 0,2 0,4 0,6 0,2 -1,3 -1,5 -1,3 -2,5 -4,7 -1,2 -3,3 -5,4 -2,1 -4,1 -6,1l-1 0 0 -6 1 0c1,0 2,0 3,-1 1,0 2,-1 3,-2 1,-1 2,-5 2,-7 0,-1 0,-2 0,-3 0,-2 0,-3 0,-5 0,-2 0,-4 0,-6 0,-2 0,-5 0,-7l0 -10 33 0 0 46 -7 0 0 -40zm67 9l-4 31 -7 0 8 -50 20 40 21 -40 7 50 -7 0 -3 -31 -18 34 -17 -34zm56 3l26 0 0 -18 7 0 0 46 -7 0 0 -23 -26 0 0 23 -7 0 0 -46 7 0 0 18zm106 -12l0 11 21 0 0 6 -21 0 0 17 21 0 0 6 -28 0 0 -46 28 0 0 6 -21 0zm102 0l0 40 -7 0 0 -46 25 0 0 6 -18 0zm29 0l0 11 21 0 0 6 -21 0 0 17 21 0 0 6 -28 0 0 -46 28 0 0 6 -21 0zm33 12l26 0 0 -18 7 0 0 46 -7 0 0 -23 -26 0 0 23 -7 0 0 -46 7 0 0 18zm50 -12l-14 0 0 -6 35 0 0 6 -14 0 0 40 -7 0 0 -40zm50 -1c-4,0 -8,1 -11,2 -3,1 -5,3 -7,6 -2,3 -3,6 -3,10 0,5 2,10 6,13 4,4 10,5 15,5 6,0 11,-2 16,-5l2 -1 0 7 -1 0c-3,1 -5,2 -8,3 -3,1 -6,1 -9,1 -4,0 -8,-1 -13,-2 -4,-1 -8,-4 -11,-7 -3,-4 -5,-9 -5,-14 0,-4 1,-8 3,-12 2,-4 5,-7 9,-9 5,-3 11,-3 16,-3 6,0 12,2 17,5l1 0 0 7 -2 -1c-2,-1 -4,-3 -7,-4 -3,-1 -6,-2 -9,-2zm34 1l-14 0 0 -6 35 0 0 6 -14 0 0 40 -7 0 0 -40zm-662 20l0 20 -7 0 0 -46 10 0c5,0 10,1 14,3 4,2 5,6 5,10 0,4 -1,9 -6,11 -4,2 -9,3 -13,3l-4 0zm175 5l-20 0 -7 15 -7 0 24 -49 23 49 -7 0 -7 -15zm147 16c-5,0 -10,-1 -14,-3 -4,-2 -8,-4 -11,-8 -3,-4 -4,-8 -4,-13 0,-5 1,-9 4,-13 3,-4 7,-6 11,-8 4,-2 9,-3 14,-3 4,0 8,1 11,2 3,1 6,3 9,5 2,2 4,5 6,8 1,3 2,6 2,10 0,5 -1,9 -4,13 -3,4 -6,6 -10,8 -5,2 -9,3 -14,3zm120 -16l-20 0 -7 15 -7 0 24 -49 23 49 -7 0 -7 -15zm267 -10c2,1 3,1 4,3 2,2 3,5 3,8 0,11 -8,14 -18,14l-14 0 0 -46 14 0c4,0 8,1 11,3 3,2 4,6 4,10 0,4 -2,7 -5,9zm38 25c-5,0 -10,-1 -14,-3 -4,-2 -8,-4 -11,-8 -3,-4 -4,-8 -4,-13 0,-5 1,-9 4,-13 3,-4 7,-6 11,-8 4,-2 9,-3 14,-3 4,0 8,1 11,2 3,1 6,3 9,5 2,2 4,5 6,8 1,3 2,6 2,10 0,5 -1,9 -4,13 -3,4 -6,6 -10,8 -5,2 -9,3 -14,3zm-748 -41l0 15 4 0c3,0 7,0 9,-2 2,-1 2,-3 2,-6 0,-1 0,-3 -1,-4 -2,-3 -7,-4 -11,-4l-3 0zm166 4l-7 15 14 0 -7 -15zm157 31c4,0 8,-1 11,-2 3,-2 6,-4 8,-7 2,-3 3,-6 3,-9 0,-3 -1,-6 -2,-9 -2,-3 -4,-5 -7,-7 -4,-2 -8,-3 -12,-3 -3,0 -7,1 -10,2 -3,1 -6,3 -8,6 -2,3 -3,6 -3,10 0,3 1,6 3,9 2,3 5,5 8,7 3,2 7,3 11,3zm110 -31l-7 15 14 0 -7 -15zm260 9l6 0c3,0 6,0 8,-3 1,-1 1,-3 1,-4 0,-5 -4,-7 -9,-7l-7 0 0 14zm0 5l0 15 6 0c3,0 7,0 10,-2 2,-1 2,-3 2,-6 0,-2 0,-4 -2,-6 -2,-2 -6,-2 -9,-2l-6 0zm56 16c4,0 8,-1 11,-2 3,-2 6,-4 8,-7 2,-3 3,-6 3,-9 0,-3 -1,-6 -2,-9 -2,-3 -4,-5 -7,-7 -4,-2 -8,-3 -12,-3 -3,0 -7,1 -10,2 -3,1 -6,3 -8,6 -2,3 -3,6 -3,10 0,3 1,6 3,9 2,3 5,5 8,7 3,2 7,3 11,3z"/>
   <path class="fil2" d="M489 322c10,-25 24,-62 42,-113 -11,3 -25,19 -43,50 -11,20 -21,40 -31,63l31 0zm-231 51c-3,10 -7,21 -11,31 -3,8 -8,14 -13,17 -6,4 -16,7 -31,11 6,-16 14,-43 24,-82 8,-30 16,-54 25,-70 13,-24 32,-46 57,-66 2,-1 4,-3 7,-5l5 4c-15,17 -36,68 -61,154 12,-4 20,-7 25,-9 9,-4 17,-8 23,-12 17,-11 30,-24 40,-39 11,-17 17,-35 17,-53 0,-16 -6,-28 -17,-37 -10,-8 -23,-11 -40,-11 -25,0 -51,7 -77,22 -26,15 -47,33 -63,56 -18,25 -26,50 -26,76 0,11 3,23 8,35l-6 3c-10,-19 -15,-38 -15,-56 0,-42 21,-78 63,-106 38,-25 78,-39 123,-39 24,0 44,5 59,14 19,11 29,27 29,49 0,18 -6,35 -17,50 -3,5 -7,7 -11,12 6,-1 13,-2 19,-2 7,0 6,-1 20,0 14,1 24,1 31,1 14,-32 26,-54 37,-70 20,-31 40,-46 59,-46 6,0 11,2 15,6 4,4 6,9 6,15 0,8 -4,24 -13,48 -6,16 -12,31 -19,48l35 -1c-3,2 -7,7 -11,13l-29 0c-6,15 -11,30 -17,45 -8,22 -12,34 -12,40 0,8 4,13 13,13 6,0 15,-2 26,-6 10,-4 18,-8 24,-12l1 6c-23,14 -44,22 -61,22 -26,0 -39,-10 -39,-30 0,-8 3,-21 10,-39 5,-13 10,-26 16,-39l-30 -1c-5,9 -9,17 -13,26 -22,46 -52,87 -109,87 -15,0 -28,-4 -38,-12 -23,-18 -31,-51 -22,-62l-14 4zm107 -42c-8,6 -16,12 -26,17 -7,4 -19,8 -35,13 -18,30 20,64 48,64 33,0 51,-19 66,-44 12,-20 16,-31 24,-51 -28,-3 -37,-1 -49,-1 -9,0 -18,1 -28,3z"/>
   <path class="fil0" d="M631 499c0,0 -1,1 -3,4 -73,76 -122,111 -227,126 -61,9 -111,-1 -176,-27 -1,0 -199,-67 -199,-338 0,1 2,-49 20,-100 6,-16 15,-37 27,-54 2,-2 4,-6 4,-9 0,0 -1,1 -3,3 -11,12 -47,57 -65,139 -22,98 7,221 56,286 39,52 132,143 278,138 46,-2 93,-12 137,-31 34,-15 61,-33 88,-58 24,-23 48,-51 59,-68 4,-6 6,-12 6,-12z"/>
   <path class="fil1" d="M1532 15c17,0 31,14 31,31 0,17 -14,31 -31,31 -17,0 -31,-14 -31,-31 0,-17 14,-31 31,-31zm0 -6c20,0 37,16 37,37 0,20 -16,37 -37,37 -20,0 -37,-16 -37,-37 0,-20 16,-37 37,-37z"/>
   <path class="fil1" d="M1524 43l6 0c4,0 6,0 7,0 1,0 2,-1 2,-2 1,-1 1,-2 1,-3 0,-1 0,-2 -1,-3 -1,-1 -2,-1 -3,-2 -1,0 -3,0 -6,0l-6 0 0 10zm-8 23l0 -41 17 0c4,0 8,0 9,1 2,1 4,2 5,4 1,2 2,4 2,6 0,3 -1,6 -3,8 -2,2 -4,3 -8,4 2,1 3,2 4,3 1,1 3,3 5,7l5 8 -10 0 -6 -9c-2,-3 -4,-5 -4,-6 -1,-1 -2,-1 -2,-2 -1,0 -2,0 -4,0l-2 0 0 17 -8 0z"/>
   <path class="fil1" d="M690 350l7 0c9,0 19,-2 27,-5 9,-3 17,-8 24,-15 7,-7 11,-16 13,-25l0 -1 8 0 0 54 -161 0 0 -12 81 -119 -8 0c-10,0 -21,2 -30,7 -8,4 -15,10 -20,17 -4,6 -8,13 -10,21l0 1 -8 0 0 -52 157 0 0 12 -81 120zm98 -62c0,-10 2,-19 6,-28 4,-9 10,-17 18,-23 8,-7 18,-12 28,-16 12,-4 24,-6 36,-6 12,0 25,2 36,6 10,4 20,9 28,16 8,7 14,14 18,23 4,9 6,18 6,28 0,10 -2,19 -6,28 -2,4 -5,9 -8,12 -3,4 -7,8 -11,11 -8,7 -18,12 -28,16 -12,4 -24,6 -36,6 -6,0 -13,0 -19,-1 -6,-1 -12,-2 -17,-4 -10,-3 -20,-8 -28,-15 -8,-7 -14,-14 -18,-23 -4,-9 -6,-18 -6,-28zm195 0c0,-10 2,-19 6,-28 4,-9 10,-17 18,-23 8,-7 18,-12 28,-16 12,-4 24,-6 36,-6 12,0 25,2 36,6 10,4 20,9 28,16 8,7 14,14 18,23 4,9 6,18 6,28 0,10 -2,19 -6,28 -2,4 -5,9 -8,12 -3,4 -7,8 -11,11 -8,7 -18,12 -28,16 -12,4 -24,6 -36,6 -6,0 -13,0 -19,-1 -6,-1 -12,-2 -17,-4 -10,-3 -20,-8 -28,-15 -8,-7 -14,-14 -18,-23 -4,-9 -6,-18 -6,-28zm221 -50l0 96c0,4 1,10 5,13 4,2 8,3 12,3l5 0 0 7 -49 0 0 -7 1 0c11,0 16,-5 16,-16l0 -109 -17 0 0 -7 90 0 22 55 23 -55 90 0 0 7 -17 0 0 124 17 0 0 7 -107 0 0 -7 17 0 0 -111 -49 118 -11 0 -49 -119zm-340 -4l0 108c0,8 5,11 13,11 8,0 13,-3 13,-11l0 -108c0,-3 -1,-5 -2,-8 -2,-3 -7,-3 -10,-3 -8,0 -13,3 -13,11zm195 0l0 108c0,8 5,11 13,11 8,0 13,-3 13,-11l0 -108c0,-3 -1,-5 -2,-8 -2,-3 -7,-3 -10,-3 -8,0 -13,3 -13,11z"/>
  </g>
 </g>
</svg>
